<?xml version="1.0" encoding="utf-8"?>
<!-- Generator: Adobe Illustrator 24.3.0, SVG Export Plug-In . SVG Version: 6.00 Build 0)  -->
<svg version="1.1" id="Layer_1" xmlns="http://www.w3.org/2000/svg" xmlns:xlink="http://www.w3.org/1999/xlink" x="0px" y="0px"
	 viewBox="0 0 300 50" style="enable-background:new 0 0 300 50;" xml:space="preserve">
<style type="text/css">
	.st0{fill:#FFFFFF;}
	.st1{fill:#54C0E8;}
</style>
<g id="XMLID_25_">
	<path id="XMLID_36_" class="st0" d="M12.15,49.52c-4.76,0-7.98-0.81-9.65-2.43C0.84,45.47,0,42.42,0,37.93V27.76l11.51-2.18V40.3
		h22.4V0.48h11.44v37.45c0,4.48-0.85,7.53-2.53,9.16c-1.69,1.62-4.9,2.43-9.65,2.43H12.15z"/>
	<path id="XMLID_29_" class="st0" d="M139.9,49.52V0.48h41.99c3.88,0,6.68,0.76,8.42,2.28c1.74,1.52,2.61,3.94,2.61,7.25v5.96
		c0,2.35-0.73,4.22-2.17,5.62c-1.45,1.4-3.53,2.28-6.25,2.62c2.82,0.37,4.99,1.38,6.53,3.02c1.53,1.64,2.3,3.78,2.3,6.41v6.28
		c0,3.25-1.2,5.66-3.59,7.24c-2.39,1.58-6.02,2.37-10.9,2.37H139.9z M177.11,8.48h-25.98v11.64h25.98c1.98,0,3.34-0.26,4.1-0.79
		c0.76-0.52,1.13-1.43,1.13-2.72V12c0-1.26-0.38-2.16-1.13-2.7C180.45,8.75,179.09,8.48,177.11,8.48 M177.11,28.2h-25.98v12.51
		h25.98c2.18,0,3.66-0.32,4.42-0.98c0.76-0.65,1.15-1.8,1.15-3.44v-3.72c0-1.64-0.38-2.78-1.15-3.42
		C180.77,28.51,179.3,28.2,177.11,28.2"/>
	<rect id="XMLID_28_" x="215.31" y="0.48" class="st0" width="11.44" height="49.04"/>
	<polygon id="XMLID_27_" class="st0" points="251.76,49.52 251.76,0.48 263.2,0.48 263.2,40.3 300,40.3 300,49.52 	"/>
</g>
<g>
	<polygon class="st0" points="102.86,33.8 111.32,49.52 124.12,49.52 113.53,31.04 	"/>
	<polygon class="st0" points="90.14,9.99 97.01,22.97 108.91,22.98 96.02,0.48 85.04,0.48 57.31,49.52 68.67,49.52 	"/>
</g>
<polygon id="XMLID_26_" class="st1" points="83.04,22.96 72.95,41.56 144.56,22.99 "/>
</svg>
